# xmcd
#
# Track frame offsets:
#	150
#	16633
#	34523
#	53234
#	70664
#	87306
#	114253
#	130315
#	147006
#	160233
#	173560
#	191383
#
# Disc length: 2935 seconds
#
# Revision: 2
# Processed by: cddbd v1.5.2PL0 Copyright (c) Steve Scherf et al.
# Submitted via: EZCDDA 4.3.2
#
DISCID=8c0b750c
DTITLE=Prong - Power Of The Damager
DYEAR=1900
DGENRE=
TTITLE0=Looking For Them
TTITLE1=No Justice
TTITLE2=3rd Option
TTITLE3=Pure Ether
TTITLE4=Power Of The Damager
TTITLE5=The Banishment
TTITLE6=Worst Of It
TTITLE7=Spirit Guide
TTITLE8=Messages Inside Of Me
TTITLE9=Can't Stop The Bleeding
TTITLE10=Bad Fall
TTITLE11=Changing Ending Troubling Time
EXTD=
EXTT0=
EXTT1=
EXTT2=
EXTT3=
EXTT4=
EXTT5=
EXTT6=
EXTT7=
EXTT8=
EXTT9=
EXTT10=
EXTT11=
PLAYORDER=
